# xmcd
#
# Track frame offsets:
# 150
# 12174
# 25858
# 35647
# 51517
# 68391
# 84417
# 97483
# 112513
# 128794
#
# Disc length: 2028 seconds
#
#
# Revision: 0
# Processed by: cddbd v1.5.1PL2 Copyright (c) Steve Scherf et al.
# Submitted via: FreeRIP 2.944 
#
DISCID=7907ea0a
DTITLE=Waylon Jennings Music man - Music man
DYEAR=1980
DGENRE=Country rock
TTITLE0=Clyde
TTITLE1=It's alright
TTITLE2=Theme from The Duke of Hazzard
TTITLE3=Nashville wimmin
TTITLE4=Do it again
TTITLE5=Sweet music man
TTITLE6=Storms never last
TTITLE7=He went to Paris
TTITLE8=What about you
TTITLE9=Waltz across Texas
EXTD=
EXTT0=
EXTT1=
EXTT2=
EXTT3=
EXTT4=
EXTT5=
EXTT6=
EXTT7=
EXTT8=
EXTT9=
PLAYORDER=
